<?xml version='1.0' encoding='utf-8'?>
<svg xmlns="http://www.w3.org/2000/svg" viewBox="0 0 500 500">
 <defs>
  <linearGradient id="d" x1="176.21" x2="378.3" y1="179.13" y2="381.76" gradientUnits="userSpaceOnUse">
   <stop stop-color="#fff" offset="0"/>
   <stop stop-color="#cbcbcb" offset="1"/>
  </linearGradient>
  <linearGradient id="c" x2="0" y1="2" y2="165.53" gradientUnits="userSpaceOnUse">
   <stop stop-color="#fff" stop-opacity=".5825" offset="0"/>
   <stop stop-color="#cbcbcb" stop-opacity="0" offset="1"/>
  </linearGradient>
  <radialGradient id="b" cx="271.43" cy="285.71" r="146.01" gradientUnits="userSpaceOnUse">
   <stop stop-color="#ffc800" offset="0"/>
   <stop stop-color="#ff6432" offset="1"/>
  </radialGradient>
  <radialGradient id="a" cx="271.79" cy="-164.72" r="146.01" gradientTransform="matrix(1.6037 -1.6037 1.5736 1.5736 75.106 1190.8)" gradientUnits="userSpaceOnUse">
   <stop stop-color="#fff" stop-opacity=".2745" offset="0"/>
   <stop stop-color="#ff6432" stop-opacity="0" offset="1"/>
  </radialGradient>
 </defs>
 <path transform="matrix(1.7157 0 0 1.7157 -215.69 -240.2)" d="m417.14 285.71a145.71 145.71 0 1 1 -291.43 0 145.71 145.71 0 1 1 291.43 0z" fill="url(#d)" stroke="#b3b3b3" stroke-width=".58286"/>
 <path transform="matrix(-1.6232 .21524 -.21137 -1.5941 750.98 647.03)" d="m417.14 285.71a145.71 145.71 0 1 1 -291.43 0 145.71 145.71 0 1 1 291.43 0z" fill="url(#b)" stroke="#b3b3b3" stroke-width=".58286"/>
 <path transform="matrix(.08 0 0 .08 44 232)" d="m100 225c0 13.8-11.2 25-25 25s-25-11.2-25-25 11.2-25 25-25 25 11.2 25 25z" fill="#fff"/>
 <path transform="matrix(.069282 -.04 .04 .069282 62.599 337.41)" d="m100 225c0 13.8-11.2 25-25 25s-25-11.2-25-25 11.2-25 25-25 25 11.2 25 25z" fill="#fff"/>
 <path transform="matrix(.04 -.069282 .069282 .04 131.41 419.4)" d="m100 225c0 13.8-11.2 25-25 25s-25-11.2-25-25 11.2-25 25-25 25 11.2 25 25z" fill="#fff"/>
 <path transform="matrix(0 -.08 .08 0 232 456)" d="m100 225c0 13.8-11.2 25-25 25s-25-11.2-25-25 11.2-25 25-25 25 11.2 25 25z" fill="#fff"/>
 <path transform="matrix(-.04 -.069282 .069282 -.04 337.41 437.4)" d="m100 225c0 13.8-11.2 25-25 25s-25-11.2-25-25 11.2-25 25-25 25 11.2 25 25z" fill="#fff"/>
 <path transform="matrix(-.069282 -.04 .04 -.069282 419.4 368.59)" d="m100 225c0 13.8-11.2 25-25 25s-25-11.2-25-25 11.2-25 25-25 25 11.2 25 25z" fill="#fff"/>
 <path transform="matrix(-.08 0 0 -.08 456 268)" d="m100 225c0 13.8-11.2 25-25 25s-25-11.2-25-25 11.2-25 25-25 25 11.2 25 25z" fill="#fff"/>
 <path transform="matrix(-.08 0 0 -.08 456 268)" d="m100 225c0 13.8-11.2 25-25 25s-25-11.2-25-25 11.2-25 25-25 25 11.2 25 25z" fill="#fff"/>
 <path transform="matrix(-.069282 .04 -.04 -.069282 437.4 162.59)" d="m100 225c0 13.8-11.2 25-25 25s-25-11.2-25-25 11.2-25 25-25 25 11.2 25 25z" fill="#fff"/>
 <path transform="matrix(-.04 .069282 -.069282 -.04 368.59 80.599)" d="m100 225c0 13.8-11.2 25-25 25s-25-11.2-25-25 11.2-25 25-25 25 11.2 25 25z" fill="#fff"/>
 <path transform="matrix(0 .08 -.08 0 268 44)" d="m100 225c0 13.8-11.2 25-25 25s-25-11.2-25-25 11.2-25 25-25 25 11.2 25 25z" fill="#fff"/>
 <path transform="matrix(.04 .069282 -.069282 .04 162.59 62.599)" d="m100 225c0 13.8-11.2 25-25 25s-25-11.2-25-25 11.2-25 25-25 25 11.2 25 25z" fill="#fff"/>
 <path transform="matrix(.069282 .04 -.04 .069282 80.599 131.41)" d="m100 225c0 13.8-11.2 25-25 25s-25-11.2-25-25 11.2-25 25-25 25 11.2 25 25z" fill="#fff"/>
 <path d="m243.95 26.18-6.5742 4.2188 0.52734-1.7578 11.918-7.5586-7.9102 21.779-4.5703 1.3184c0.86719-2.2969 3.0703-8.2969 6.6094-18m21.393-0.9668c-2e-5 -0.78514-0.21095-1.4355-0.63282-1.9512-0.42188-0.52732-1.0195-0.79099-1.793-0.79102-1.4649 2e-5 -2.7774 0.97854-3.9375 2.9356-1.0195 1.7227-1.5293 3.375-1.5293 4.957-1e-5 0.15236 0.0996 0.73829 0.29883 1.7578l-0.47461 0.10547c-0.73829-1.4648-1.1133-2.6601-1.125-3.5859-0.01173-2.039 0.70312-3.7207 2.1445-5.0449 1.3945-1.3008 3.1172-1.9512 5.168-1.9512 1.6289 2e-5 2.9707 0.49221 4.0254 1.4766 1.0898 1.0196 1.6348 2.3438 1.6348 3.9727-1e-5 2.1914-1.1602 4.207-3.4805 6.0469-0.89063 0.70313-2.9942 1.9746-6.3105 3.8144-1.7344 0.94922-3.0176 1.7461-3.8496 2.3906-1.1484 0.86719-2.1973 1.9395-3.1465 3.2168 2.168-1.6289 4.5703-2.4434 7.207-2.4434 0.59764 0 1.4414 0.18164 2.5312 0.54492 1.0898 0.35157 1.8808 0.52735 2.373 0.52734 0.60936 0 1.4004-0.42773 2.373-1.2832l0.42187 0.45703c-0.65626 0.9961-1.5879 1.834-2.7949 2.5137s-2.3848 1.0195-3.5332 1.0195c-0.76173 0-1.8809-0.21094-3.3574-0.63281-1.4648-0.42187-2.5898-0.63281-3.375-0.63281-1.1133 0-2.0274 0.39844-2.7422 1.1953l-0.49219-0.33398c0.9375-1.8281 2.5957-3.7031 4.9746-5.625 3.2812-2.6367 5.209-4.2656 5.7832-4.8867 0.90234-0.97264 1.7168-2.1738 2.4434-3.6035 0.79687-1.6172 1.1953-3.0058 1.1953-4.166" fill="#fff"/>
 <path d="m461.2 253.25-0.03515-0.03516c0.82031 2.6602 2.2207 3.9902 4.2012 3.9902 1.4062 1e-5 2.7305-1.0254 3.9726-3.0762 1.125-1.8516 1.6875-3.539 1.6875-5.0625-1e-5 -0.84374-0.26368-1.5469-0.79101-2.1094-0.51564-0.56249-1.1895-0.84374-2.0215-0.84375-0.65625 1e-5 -1.2598 0.14063-1.8105 0.42187-0.28126 0.15236-0.79688 0.50392-1.5469 1.0547l-0.38672-0.24609 1.5469-3.2871c0.64452 0.79689 1.4238 1.1953 2.3379 1.1953 1.2305 1e-5 2.332-0.86717 3.3047-2.6016 0.84373-1.5234 1.2656-2.959 1.2656-4.3066-1e-5 -1.3008-0.91993-1.9512-2.7598-1.9512-0.70314 3e-5 -1.5 0.40432-2.3906 1.2129-0.77344 0.69142-1.3477 1.4063-1.7226 2.1445l-0.79102-0.22852 0.82617-3.1289c1.7461-0.48044 3.2226-0.72068 4.4297-0.7207 1.7226 2e-5 3.1406 0.29299 4.2539 0.87891 1.4062 0.75002 2.1152 1.9102 2.127 3.4805 0.0117 3.0234-2.1387 4.8809-6.4512 5.5723 3.1406 0.58595 4.7109 2.1152 4.7109 4.5879-1e-5 2.2383-1.1309 4.1309-3.3926 5.6777-2.0274 1.3945-4.2188 2.0918-6.5742 2.0918-1.1953 0-2.7656-0.32226-4.7109-0.96679l-0.33399-3.2168 1.0547-0.52734" fill="#fff"/>
 <path d="m259.11 456.3c-4.7578 3.4453-8.0332 6.5215-9.8262 9.2285 0.5039-0.18748 1.2715-0.38084 2.3027-0.58008 1.5586-0.0117 2.8476 0.5215 3.8672 1.5996 1.0312 1.0664 1.5469 2.3789 1.5469 3.9375-2e-5 2.3906-0.9551 4.5527-2.8652 6.4863-1.8984 1.9219-4.043 2.8828-6.4336 2.8828-1.8281 0-3.3457-0.57422-4.5527-1.7227-1.207-1.1602-1.8105-2.6484-1.8105-4.4648 0-2.332 0.97265-4.6934 2.918-7.084 1.5-1.8398 3.6621-3.7793 6.4863-5.8184 0.35156-0.25779 2.5781-1.7461 6.6797-4.4648h1.6875m-12.094 23.08c1.5352 0 2.8359-1.0312 3.9024-3.0938 0.41014-0.78516 1.0312-2.4785 1.8633-5.0801 0.55076-1.7226 0.82616-2.789 0.82617-3.1992-1e-5 -1.582-0.8379-2.373-2.5137-2.373-1.5938 2e-5 -3.1231 1.4414-4.5879 4.3242-1.2891 2.543-1.9336 4.7109-1.9336 6.5039 0 1.9453 0.81445 2.918 2.4434 2.918" fill="#fff"/>
 <path d="m32.615 252.16c-0.93751 0.30469-1.7285 0.45703-2.373 0.45703-1.418 0-2.6309-0.50976-3.6387-1.5293-1.0078-1.0312-1.5117-2.2617-1.5117-3.6914 0-2.5195 0.89648-4.7402 2.6894-6.6621 1.8281-1.9687 3.9902-2.9531 6.4863-2.9531 1.8633 2e-5 3.4101 0.57424 4.6406 1.7227 1.2304 1.1367 1.8457 2.6309 1.8457 4.4824-2e-5 3.9024-2.7481 7.8457-8.2441 11.83-3.2813 2.3789-5.9004 4.207-7.8574 5.4844l-1.8281 0.03516c1.8398-1.207 3.627-2.5898 5.3613-4.1484 2.0508-1.8516 3.5273-3.5273 4.4297-5.0273m-1.7227-0.19336h-0.05273c1.7578 0 3.3516-1.4766 4.7812-4.4297 1.2304-2.543 1.8457-4.8105 1.8457-6.8027-1e-5 -0.77342-0.24611-1.3769-0.73828-1.8106-0.48048-0.44529-1.1074-0.66795-1.8809-0.66797-1.4297 2e-5 -2.8945 1.5293-4.3945 4.5879-1.3477 2.7305-2.0215 4.9219-2.0215 6.5742-1e-5 1.6992 0.82031 2.5488 2.4609 2.5488" fill="#fff"/>
 <path d="m250 2c-107.61 0-199.38 68.104-234.59 163.53 61.878-40.631 144.22-65.438 234.59-65.438s172.72 24.806 234.59 65.438c-35.214-95.427-126.98-163.53-234.59-163.53z" fill="url(#c)"/>
 <path d="m490.25 265.98c-26.861 86.611-105.65 154.77-206.41 167.59-123.05 15.666-236.88-56.55-270.53-165.44 0.2108 8.1185 0.81555 16.306 1.9062 24.531 17.002 128.22 136.78 218.25 267.34 200.94 118.21-15.675 204.96-114 207.69-227.62z" fill="url(#a)"/>
 <g transform="translate(250,250)">
  <path d="m0-200a1,1 0 0,1 1,1v198a1,1 0 0,1 -1,1 1,1 0 0,1 -1-1v-198a1,1 0 0,1 1-1" fill="#fff"/>
 </g>
 <g transform="translate(250,250)">
  <path d="m0-170a2,2 0 0,1 2,2v166a2,2 0 0,1 -2,2 2,2 0 0,1 -2-2v-166a2,2 0 0,1 2-2" fill="#fff"/>
 </g>
 <g transform="translate(250,250)">
  <path d="m0-150c-1.662 0-3 1.338-3 3v144c0 1.662 1.338 3 3 3s3-1.338 3-3v-144c0-1.662-1.338-3-3-3zm0 2c0.554 0 1 1.2886 1 2.9062v140.19c0 1.6177-0.446 2.9062-1 2.9062s-1-1.2886-1-2.9062v-140.19c0-1.6177 0.446-2.9062 1-2.9062z" fill="#fff"/>
 </g>
 <path d="m256 250c0 3.312-2.688 6-6 6s-6-2.688-6-6 2.688-6 6-6 6 2.688 6 6" fill="#fff"/>
 </svg>